# xmcd
#
# Track frame offsets:
#	150
#	10710
#	23535
#	37264
#	49913
#	62604
#	80884
#	96016
#	110436
#	120515
#	134609
#	153524
#	166275
#	178771
#
# Disc length: 2568 seconds
#
# Revision: 0
# Processed by: cddbd v1.5.2PL0 Copyright (c) Steve Scherf et al.
# Submitted via: EasyCDDAExtractor 10.2.0.1
#
DISCID=b60a060e
DTITLE=Various Artist - The Essential Guide to American Roots, Disc 1
DYEAR=2006
DGENRE=Roots
TTITLE0=The Carter Family - Theme/Cannon Ball Blues
TTITLE1=Robert Johnson - Come on in My Kitchen
TTITLE2=Woody Guthrie - Pretty Boy Floyd
TTITLE3=The Stanley Brothers - The Rambler's Blues
TTITLE4=Hank Williams - I'm So Lonesome I Could Cry
TTITLE5=Lydia Mendoza - Mal Hombre [live]
TTITLE6=Dock Boggs - Oh Death
TTITLE7=Hazel Dickens and Alice Gerrard - The One I Love Is Gone
TTITLE8=The Hackberry Ramblers - Crowley Waltz
TTITLE9=Fred McDowell and Johnny Woods - Shake 'Em On Down
TTITLE10=Lightnin' Hopkins - Please Settle in Vietnam
TTITLE11=Johnny Cash - Folsom Prison Blues
TTITLE12=John Lee Hooker - Crawlin' King Snake
TTITLE13=Dolly Parton - My Tennessee Mountain Home
EXTD=
EXTT0=
EXTT1=
EXTT2=
EXTT3=
EXTT4=
EXTT5=
EXTT6=
EXTT7=
EXTT8=
EXTT9=
EXTT10=
EXTT11=
EXTT12=
EXTT13=
PLAYORDER=
